<svg width="20" height="20" viewBox="0 0 20 20" fill="none" xmlns="http://www.w3.org/2000/svg">
<path d="M11.074 14H8.92595C8.83795 14 8.76195 13.968 8.69795 13.904C8.63395 13.84 8.60195 13.764 8.60195 13.676V8.084C8.60195 7.996 8.63395 7.92 8.69795 7.856C8.76195 7.792 8.83795 7.76 8.92595 7.76H11.074C11.162 7.76 11.238 7.792 11.302 7.856C11.366 7.92 11.398 7.996 11.398 8.084V13.676C11.398 13.764 11.366 13.84 11.302 13.904C11.238 13.968 11.162 14 11.074 14ZM11.338 5.444V6.896C11.338 6.984 11.306 7.06 11.242 7.124C11.178 7.188 11.102 7.22 11.014 7.22H8.98595C8.89795 7.22 8.82195 7.188 8.75795 7.124C8.69395 7.06 8.66195 6.984 8.66195 6.896V5.444C8.66195 5.356 8.69395 5.28 8.75795 5.216C8.82195 5.152 8.89795 5.12 8.98595 5.12H11.014C11.102 5.12 11.178 5.152 11.242 5.216C11.306 5.28 11.338 5.356 11.338 5.444Z" fill="#F8517E"/>
<circle cx="10" cy="10" r="9" stroke="#F8517E" stroke-width="2"/>
</svg>
